<?xml version="1.0" encoding="UTF-8" standalone="no"?>
<!-- Created with Inkscape (http://www.inkscape.org/) -->

<svg
   width="512"
   height="512"
   viewBox="0 0 512 512"
   version="1.1"
   id="svg1"
   xml:space="preserve"
   inkscape:version="1.3 (0e150ed6c4, 2023-07-21)"
   sodipodi:docname="logo_beta.svg"
   xmlns:inkscape="http://www.inkscape.org/namespaces/inkscape"
   xmlns:sodipodi="http://sodipodi.sourceforge.net/DTD/sodipodi-0.dtd"
   xmlns:xlink="http://www.w3.org/1999/xlink"
   xmlns="http://www.w3.org/2000/svg"
   xmlns:svg="http://www.w3.org/2000/svg"><sodipodi:namedview
     id="namedview1"
     pagecolor="#505050"
     bordercolor="#eeeeee"
     borderopacity="1"
     inkscape:showpageshadow="0"
     inkscape:pageopacity="0"
     inkscape:pagecheckerboard="0"
     inkscape:deskcolor="#d1d1d1"
     inkscape:document-units="px"
     inkscape:zoom="0.63520736"
     inkscape:cx="261.33199"
     inkscape:cy="254.24768"
     inkscape:window-width="1128"
     inkscape:window-height="683"
     inkscape:window-x="0"
     inkscape:window-y="0"
     inkscape:window-maximized="1"
     inkscape:current-layer="g2" /><defs
     id="defs1"><linearGradient
       id="linearGradient1"
       inkscape:collect="always"><stop
         style="stop-color:#ffac00;stop-opacity:1;"
         offset="0"
         id="stop1" /><stop
         style="stop-color:#ffd700;stop-opacity:1"
         offset="1"
         id="stop2" /></linearGradient><linearGradient
       id="linearGradient15"
       inkscape:collect="always"><stop
         style="stop-color:#4f55b5;stop-opacity:1;"
         offset="0"
         id="stop15" /><stop
         style="stop-color:#4cbbf5;stop-opacity:1;"
         offset="1"
         id="stop16" /></linearGradient><linearGradient
       id="linearGradient12"
       inkscape:collect="always"><stop
         style="stop-color:#ffffff;stop-opacity:1;"
         offset="0"
         id="stop12" /><stop
         style="stop-color:#ddf1ff;stop-opacity:1;"
         offset="1"
         id="stop13" /></linearGradient><linearGradient
       inkscape:collect="always"
       xlink:href="#linearGradient12"
       id="linearGradient13"
       x1="2.0210192"
       y1="21.978981"
       x2="21.978981"
       y2="2.0232515"
       gradientUnits="userSpaceOnUse" /><linearGradient
       inkscape:collect="always"
       xlink:href="#linearGradient15"
       id="linearGradient16"
       x1="2.0210192"
       y1="21.978981"
       x2="21.978981"
       y2="2.0232515"
       gradientUnits="userSpaceOnUse" /><linearGradient
       inkscape:collect="always"
       xlink:href="#linearGradient1"
       id="linearGradient2"
       x1="-1.462549e-05"
       y1="476.92294"
       x2="511.99997"
       y2="348.92291"
       gradientUnits="userSpaceOnUse"
       gradientTransform="translate(1.462549e-5,127.99998)" /></defs><g
     inkscape:label="Livello 1"
     inkscape:groupmode="layer"
     id="layer1"><g
       style="fill:none"
       id="g1"
       transform="matrix(25.593277,0,0,25.596982,-51.111703,-51.193532)"><path
         d="M 3,9 H 21 M 7,3 V 5 M 17,3 V 5 M 6,12 h 2 m 3,0 h 2 m 3,0 h 2 M 6,15 h 2 m 3,0 h 2 m 3,0 h 2 M 6,18 h 2 m 3,0 h 2 m 3,0 h 2 M 6.2,21 h 11.6 c 1.1201,0 1.6802,0 2.108,-0.218 0.3763,-0.1917 0.6823,-0.4977 0.874,-0.874 C 21,19.4802 21,18.9201 21,17.8 V 8.2 C 21,7.07989 21,6.51984 20.782,6.09202 20.5903,5.71569 20.2843,5.40973 19.908,5.21799 19.4802,5 18.9201,5 17.8,5 H 6.2 C 5.0799,5 4.51984,5 4.09202,5.21799 3.71569,5.40973 3.40973,5.71569 3.21799,6.09202 3,6.51984 3,7.07989 3,8.2 v 9.6 c 0,1.1201 0,1.6802 0.21799,2.108 0.19174,0.3763 0.4977,0.6823 0.87403,0.874 C 4.51984,21 5.07989,21 6.2,21 Z"
         stroke="#000000"
         stroke-width="2"
         stroke-linecap="round"
         id="path1"
         style="fill:url(#linearGradient13);stroke-width:1.95349667;stroke-dasharray:none;fill-opacity:1;stroke:url(#linearGradient16);stroke-opacity:1" /></g><g
       id="g2"
       style="display:inline"
       transform="translate(0,-92.922912)"><rect
         style="fill:url(#linearGradient2);fill-opacity:1;stroke:#ffb500;stroke-width:0;stroke-linecap:butt;stroke-linejoin:round;stroke-dasharray:none;stroke-opacity:1"
         id="rect1"
         width="511.99997"
         height="128"
         x="1.462549e-05"
         y="476.92291"
         rx="64"
         ry="64" /><text
         xml:space="preserve"
         style="font-style:normal;font-variant:normal;font-weight:normal;font-stretch:normal;font-size:133.333px;font-family:Carlito;-inkscape-font-specification:Carlito;letter-spacing:40px;fill:#ffffff;fill-opacity:1;stroke:#ffffff;stroke-width:12;stroke-linecap:round;stroke-linejoin:round;stroke-dasharray:none;stroke-dashoffset:0;stroke-opacity:1"
         x="56.872749"
         y="583.69623"
         id="text1"><tspan
           sodipodi:role="line"
           id="tspan1"
           x="56.872749"
           y="583.69623"
           style="font-style:normal;font-variant:normal;font-weight:normal;font-stretch:normal;font-size:133.333px;font-family:Carlito;-inkscape-font-specification:Carlito;letter-spacing:40px;fill:#ffffff;fill-opacity:1;stroke:#ffffff;stroke-width:12;stroke-dasharray:none;stroke-opacity:1">BETA</tspan></text></g></g></svg>
