<?xml version="1.0" encoding="UTF-8" standalone="no"?>
<!-- Created with Inkscape (http://www.inkscape.org/) -->

<svg
   width="512"
   height="512"
   viewBox="0 0 512 512"
   version="1.1"
   id="svg1"
   xml:space="preserve"
   inkscape:version="1.3 (0e150ed6c4, 2023-07-21)"
   sodipodi:docname="logo_beta.svg"
   xmlns:inkscape="http://www.inkscape.org/namespaces/inkscape"
   xmlns:sodipodi="http://sodipodi.sourceforge.net/DTD/sodipodi-0.dtd"
   xmlns:xlink="http://www.w3.org/1999/xlink"
   xmlns="http://www.w3.org/2000/svg"
   xmlns:svg="http://www.w3.org/2000/svg"><sodipodi:namedview
     id="namedview1"
     pagecolor="#505050"
     bordercolor="#eeeeee"
     borderopacity="1"
     inkscape:showpageshadow="0"
     inkscape:pageopacity="0"
     inkscape:pagecheckerboard="0"
     inkscape:deskcolor="#d1d1d1"
     inkscape:document-units="px"
     inkscape:zoom="1.2704147"
     inkscape:cx="317.61282"
     inkscape:cy="371.13865"
     inkscape:window-width="1920"
     inkscape:window-height="1009"
     inkscape:window-x="-8"
     inkscape:window-y="-8"
     inkscape:window-maximized="1"
     inkscape:current-layer="layer1" /><defs
     id="defs1"><linearGradient
       id="linearGradient1"
       inkscape:collect="always"><stop
         style="stop-color:#ffac00;stop-opacity:1;"
         offset="0"
         id="stop1" /><stop
         style="stop-color:#ffd700;stop-opacity:1"
         offset="1"
         id="stop2" /></linearGradient><linearGradient
       id="linearGradient15"
       inkscape:collect="always"><stop
         style="stop-color:#4f55b5;stop-opacity:1;"
         offset="0"
         id="stop15" /><stop
         style="stop-color:#4cbbf5;stop-opacity:1;"
         offset="1"
         id="stop16" /></linearGradient><linearGradient
       id="linearGradient12"
       inkscape:collect="always"><stop
         style="stop-color:#ffffff;stop-opacity:1;"
         offset="0"
         id="stop12" /><stop
         style="stop-color:#ddf1ff;stop-opacity:1;"
         offset="1"
         id="stop13" /></linearGradient><linearGradient
       inkscape:collect="always"
       xlink:href="#linearGradient12"
       id="linearGradient13"
       x1="2.0210192"
       y1="21.978981"
       x2="21.978981"
       y2="2.0232515"
       gradientUnits="userSpaceOnUse" /><linearGradient
       inkscape:collect="always"
       xlink:href="#linearGradient15"
       id="linearGradient16"
       x1="2.0210192"
       y1="21.978981"
       x2="21.978981"
       y2="2.0232515"
       gradientUnits="userSpaceOnUse" /><linearGradient
       inkscape:collect="always"
       xlink:href="#linearGradient1"
       id="linearGradient2"
       x1="-1.462549e-05"
       y1="476.92294"
       x2="511.99997"
       y2="348.92291"
       gradientUnits="userSpaceOnUse"
       gradientTransform="translate(0.00763736,127.40201)" /></defs><g
     inkscape:label="Livello 1"
     inkscape:groupmode="layer"
     id="layer1"><g
       style="fill:none"
       id="g1"
       transform="matrix(25.593277,0,0,25.596982,-51.111703,-51.193532)"><path
         d="M 3,9 H 21 M 7,3 V 5 M 17,3 V 5 M 6,12 h 2 m 3,0 h 2 m 3,0 h 2 M 6,15 h 2 m 3,0 h 2 m 3,0 h 2 M 6,18 h 2 m 3,0 h 2 m 3,0 h 2 M 6.2,21 h 11.6 c 1.1201,0 1.6802,0 2.108,-0.218 0.3763,-0.1917 0.6823,-0.4977 0.874,-0.874 C 21,19.4802 21,18.9201 21,17.8 V 8.2 C 21,7.07989 21,6.51984 20.782,6.09202 20.5903,5.71569 20.2843,5.40973 19.908,5.21799 19.4802,5 18.9201,5 17.8,5 H 6.2 C 5.0799,5 4.51984,5 4.09202,5.21799 3.71569,5.40973 3.40973,5.71569 3.21799,6.09202 3,6.51984 3,7.07989 3,8.2 v 9.6 c 0,1.1201 0,1.6802 0.21799,2.108 0.19174,0.3763 0.4977,0.6823 0.87403,0.874 C 4.51984,21 5.07989,21 6.2,21 Z"
         stroke="#000000"
         stroke-width="2"
         stroke-linecap="round"
         id="path1"
         style="fill:url(#linearGradient13);stroke-width:1.95349667;stroke-dasharray:none;fill-opacity:1;stroke:url(#linearGradient16);stroke-opacity:1" /></g><g
       id="g2"
       style="display:inline"
       transform="translate(0,-92.922912)"><rect
         style="fill:url(#linearGradient2);fill-opacity:1;stroke:#ffb500;stroke-width:0;stroke-linecap:butt;stroke-linejoin:round;stroke-dasharray:none;stroke-opacity:1"
         id="rect1"
         width="511.99997"
         height="128"
         x="0.0076363515"
         y="476.32495"
         rx="64"
         ry="64" /><path
         d="m 123.64091,558.29368 q 0,3.97135 -1.04167,7.35675 -0.97656,3.32031 -2.79947,5.98957 -1.82291,2.66927 -4.42707,4.68749 -2.53906,2.01822 -5.79426,3.38541 -3.19009,1.36718 -6.90102,2.08333 -3.645826,0.65104 -8.398418,0.65104 H 72.27385 q -1.497392,0 -2.864576,-0.97656 -1.30208,-1.04167 -1.30208,-3.58072 v -75.13002 q 0,-2.53906 1.30208,-3.51562 1.367184,-1.04166 2.864576,-1.04166 h 19.140576 q 7.552064,0 12.369764,1.43229 4.81769,1.43229 8.00779,4.16665 3.2552,2.73437 4.8828,6.70572 1.6276,3.97134 1.6276,8.98435 0,2.99478 -0.71615,5.72915 -0.71614,2.73437 -2.14843,5.07811 -1.36718,2.27864 -3.51561,4.10155 -2.08333,1.82292 -4.8177,2.99479 3.45051,0.65104 6.4453,2.40885 2.99478,1.6927 5.20832,4.36196 2.27864,2.66927 3.58072,6.24999 1.30208,3.58072 1.30208,7.87758 z m -16.86194,-37.69521 q 0,-3.05989 -0.84635,-5.53384 -0.84635,-2.47396 -2.66927,-4.16666 -1.82291,-1.75781 -4.752588,-2.66926 -2.92968,-0.91146 -7.747376,-0.91146 H 79.174874 v 27.27858 h 12.760384 q 4.361968,0 7.031232,-1.10677 2.66926,-1.17187 4.42707,-3.05989 1.75781,-1.95312 2.53906,-4.49218 0.84635,-2.60416 0.84635,-5.33852 z m 5.07811,38.34625 q 0,-3.77603 -1.23697,-6.64061 -1.17188,-2.86457 -3.51562,-4.81769 -2.27864,-1.95312 -5.79426,-2.92968 -3.450508,-1.04167 -8.723932,-1.04167 H 79.174874 v 29.68743 h 16.276 q 3.841136,0 6.705716,-0.91146 2.86457,-0.91145 5.013,-2.66926 2.21354,-1.82291 3.45052,-4.49218 1.23697,-2.66926 1.23697,-6.18488 z m 115.65085,18.88016 q 0,1.17187 -0.13021,2.08333 -0.13021,0.84635 -0.45573,1.43229 -0.32552,0.58593 -0.78124,0.84635 -0.39063,0.26042 -0.91146,0.26042 h -40.42958 q -1.4974,0 -2.86458,-0.97656 -1.30208,-1.04167 -1.30208,-3.58072 v -75.13002 q 0,-2.53906 1.30208,-3.51562 1.36718,-1.04166 2.86458,-1.04166 h 39.97385 q 0.52083,0 0.91146,0.26042 0.45573,0.26041 0.71614,0.84635 0.26042,0.58593 0.39063,1.49739 0.19531,0.84635 0.19531,2.14843 0,1.17187 -0.19531,2.08333 -0.13021,0.84635 -0.39063,1.43229 -0.26041,0.52083 -0.71614,0.78125 -0.39063,0.26041 -0.91146,0.26041 h -32.94262 v 26.43223 h 28.25513 q 0.52084,0 0.91146,0.32552 0.45573,0.26041 0.71614,0.78124 0.32552,0.52084 0.45573,1.43229 0.13021,0.91146 0.13021,2.14843 0,1.17188 -0.13021,2.01823 -0.13021,0.84635 -0.45573,1.36718 -0.26041,0.52083 -0.71614,0.78125 -0.39062,0.19531 -0.91146,0.19531 h -28.25513 v 30.14315 h 33.39835 q 0.52083,0 0.91146,0.26042 0.45572,0.26042 0.78124,0.84635 0.32552,0.52083 0.45573,1.43229 0.13021,0.84635 0.13021,2.14843 z m 111.02846,-74.80449 q 0,1.23697 -0.13021,2.14843 -0.13021,0.91145 -0.45573,1.49739 -0.26041,0.52083 -0.71614,0.78125 -0.39062,0.26041 -0.91146,0.26041 H 312.625 v 73.04669 q 0,0.52083 -0.26042,0.91146 -0.26041,0.39062 -0.91145,0.65104 -0.65104,0.19531 -1.75781,0.32552 -1.04167,0.19531 -2.66927,0.19531 -1.56249,0 -2.66926,-0.19531 -1.10677,-0.13021 -1.75781,-0.32552 -0.65104,-0.26042 -0.91145,-0.65104 -0.26042,-0.39063 -0.26042,-0.91146 v -73.04669 h -23.69786 q -0.52083,0 -0.97656,-0.26041 -0.39062,-0.26042 -0.65104,-0.78125 -0.26041,-0.58594 -0.45572,-1.49739 -0.13021,-0.91146 -0.13021,-2.14843 0,-1.23698 0.13021,-2.14844 0.19531,-0.97656 0.45572,-1.56249 0.26042,-0.58594 0.65104,-0.84635 0.45573,-0.26042 0.97656,-0.26042 h 58.5936 q 0.52084,0 0.91146,0.26042 0.45573,0.26041 0.71614,0.84635 0.32552,0.58593 0.45573,1.56249 0.13021,0.91146 0.13021,2.14844 z m 104.84359,75.45553 q 0.52083,1.43229 0.52083,2.34375 0.0651,0.84635 -0.45572,1.30208 -0.52084,0.45572 -1.75781,0.58593 -1.17187,0.13021 -3.1901,0.13021 -2.01822,0 -3.2552,-0.13021 -1.17187,-0.0651 -1.82291,-0.26041 -0.58594,-0.26042 -0.91146,-0.65104 -0.26041,-0.39063 -0.52083,-0.97656 l -7.22654,-20.50776 h -35.02595 l -6.90103,20.24734 q -0.19531,0.58594 -0.52083,1.04166 -0.32552,0.39063 -0.97656,0.71615 -0.58594,0.26041 -1.75781,0.39062 -1.10677,0.13021 -2.92968,0.13021 -1.88801,0 -3.12499,-0.19531 -1.17187,-0.13021 -1.6927,-0.58594 -0.45573,-0.45573 -0.45573,-1.30208 0.0651,-0.91145 0.58593,-2.34374 l 28.25514,-78.25501 q 0.26042,-0.71614 0.65104,-1.17187 0.45573,-0.45573 1.23698,-0.71615 0.84635,-0.26041 2.08332,-0.32552 1.30208,-0.1302 3.2552,-0.1302 2.08333,0 3.45052,0.1302 1.36718,0.0651 2.21353,0.32552 0.84635,0.26042 1.30208,0.78125 0.45573,0.45573 0.71615,1.17187 z m -36.26293,-69.07534 h -0.0651 l -14.51819,41.99208 h 29.2968 z"
         id="text1"
         style="font-size:133.333px;font-family:Carlito;-inkscape-font-specification:Carlito;letter-spacing:40px;fill:#ffffff;stroke:#ffffff;stroke-width:12;stroke-linecap:round;stroke-linejoin:round"
         aria-label="BETA" /></g></g></svg>
