<?xml version="1.0" encoding="UTF-8" standalone="no"?>
<!-- Uploaded to: SVG Repo, www.svgrepo.com, Generator: SVG Repo Mixer Tools -->

<svg
   height="800"
   width="800"
   version="1.1"
   id="_x32_"
   viewBox="0 0 512 512"
   xml:space="preserve"
   sodipodi:docname="logo.svg"
   xmlns:inkscape="http://www.inkscape.org/namespaces/inkscape"
   xmlns:sodipodi="http://sodipodi.sourceforge.net/DTD/sodipodi-0.dtd"
   xmlns="http://www.w3.org/2000/svg"
   xmlns:svg="http://www.w3.org/2000/svg"><defs
   id="defs3" /><sodipodi:namedview
   id="namedview3"
   pagecolor="#ffffff"
   bordercolor="#000000"
   borderopacity="0.25"
   inkscape:showpageshadow="2"
   inkscape:pageopacity="0.0"
   inkscape:pagecheckerboard="0"
   inkscape:deskcolor="#d1d1d1" />&#10;<style
   type="text/css"
   id="style1">&#10;	.st0{fill:#000000;}&#10;</style>&#10;<g
   id="g3">&#10;	<path
   class="st0"
   d="m 44.353,227.222 c 4.645,7.978 11.459,14.473 19.655,18.723 l 66.486,34.486 c 8.118,4.203 17.254,6.044 26.375,5.298 l 45.386,-3.698 c 16.695,-1.368 31.526,-11.227 39.249,-26.112 l 16.182,-31.192 c 7.714,-14.885 7.232,-32.684 -1.274,-47.118 l -23.104,-39.24 c -4.653,-7.878 -11.42,-14.295 -19.531,-18.49 L 147.29,85.386 c -8.204,-4.25 -17.434,-6.083 -26.631,-5.283 l -69.982,6.076 c -16.61,1.445 -31.324,11.28 -38.992,26.08 l -3.814,7.35 c -7.684,14.8 -7.24,32.497 1.134,46.901 z"
   id="path1" />&#10;	<path
   class="st0"
   d="m 399.95,320.355 c -30.858,0 -55.866,25.008 -55.866,55.866 0,30.85 25.008,55.858 55.866,55.858 30.85,0 55.866,-25.008 55.866,-55.858 0,-30.857 -25.016,-55.866 -55.866,-55.866 z m 0.838,80.036 c -12.896,0 -23.345,-10.458 -23.345,-23.338 0,-12.896 10.449,-23.354 23.345,-23.354 12.889,0 23.338,10.457 23.338,23.354 0,12.88 -10.448,23.338 -23.338,23.338 z"
   id="path2" />&#10;	<polygon
   class="st0"
   points="0,293.235 45.844,293.235 45.844,262.058 0,234.649 "
   id="polygon2" />&#10;	<polygon
   class="st0"
   points="275.586,228.924 254.105,269.182 283.906,285.077 305.379,244.819 "
   id="polygon3" />&#10;	<path
   class="st0"
   d="M 510.742,215.041 479.38,118.979 c -3.418,-10.465 -13.192,-17.558 -24.2,-17.558 H 343.291 c -14.069,0 -25.498,11.405 -25.498,25.474 v 125.871 53.885 H 0.101 v 38.362 H 19.08 c -6.013,8.912 -9.525,19.648 -9.525,31.208 0,30.85 25.016,55.858 55.866,55.858 30.85,0 55.858,-25.008 55.858,-55.858 0,-11.56 -3.512,-22.296 -9.521,-31.208 h 29.064 c -6.009,8.912 -9.521,19.648 -9.521,31.208 0,30.85 25.008,55.858 55.866,55.858 30.85,0 55.866,-25.008 55.866,-55.858 0,-11.56 -3.512,-22.296 -9.525,-31.208 h 21.947 v 38.557 h 74.115 l 7.458,-38.557 c 5.321,-10.713 13.3,-19.88 23.089,-26.639 7.373,-5.104 15.756,-8.818 24.814,-10.76 l 8.639,-1.36 c 2.082,-0.187 4.203,-0.295 6.363,-0.295 28.877,0 53.738,17.48 64.521,42.41 h 22.086 c 14.054,0 25.459,-11.405 25.459,-25.466 v -99.947 c 10e-4,-2.695 -0.395,-5.36 -1.257,-7.915 z M 66.253,400.391 c -12.896,0 -23.346,-10.458 -23.346,-23.338 0,-12.896 10.449,-23.354 23.346,-23.354 12.897,0 23.338,10.457 23.338,23.354 0,12.88 -10.442,23.338 -23.338,23.338 z m 121.754,0 c -12.904,0 -23.354,-10.458 -23.354,-23.338 0,-12.896 10.449,-23.354 23.354,-23.354 12.888,0 23.338,10.457 23.338,23.354 0,12.88 -10.45,23.338 -23.338,23.338 z M 476.054,227.02 h -73.137 v -88.161 h 47.67 l 25.467,77.945 z"
   id="path3" />&#10;</g>&#10;<g
   style="fill:#ff2600"
   id="g4"
   transform="matrix(0.87573353,0,0,0.87573353,63.999919,57.495055)"><g
     id="SVGRepo_bgCarrier"
     stroke-width="0" /><g
     id="SVGRepo_tracerCarrier"
     stroke-linecap="round"
     stroke-linejoin="round" /><g
     id="SVGRepo_iconCarrier"> <path
   d="M 285.08,230.397 456.218,59.27 c 6.076,-6.077 6.076,-15.911 0,-21.986 L 423.511,4.565 c -2.913,-2.911 -6.866,-4.55 -10.992,-4.55 -4.127,0 -8.08,1.639 -10.993,4.55 L 230.388,175.705 59.25,4.565 c -2.913,-2.911 -6.866,-4.55 -10.993,-4.55 -4.126,0 -8.08,1.639 -10.992,4.55 L 4.558,37.284 c -6.077,6.075 -6.077,15.909 0,21.986 L 175.696,230.398 4.575,401.505 c -6.074,6.077 -6.074,15.911 0,21.986 l 32.709,32.719 c 2.911,2.911 6.865,4.55 10.992,4.55 4.127,0 8.08,-1.639 10.994,-4.55 L 230.387,285.09 401.505,456.21 c 2.913,2.911 6.866,4.55 10.993,4.55 4.128,0 8.081,-1.639 10.992,-4.55 l 32.709,-32.719 c 6.074,-6.075 6.074,-15.909 0,-21.986 z"
   id="path1-8" /> </g></g></svg>
