<?xml version="1.0" encoding="UTF-8" standalone="no"?>
<!-- Uploaded to: SVG Repo, www.svgrepo.com, Generator: SVG Repo Mixer Tools -->

<svg
   height="800px"
   width="800px"
   version="1.1"
   id="_x32_"
   viewBox="0 0 512 512"
   xml:space="preserve"
   sodipodi:docname="logo.svg"
   inkscape:version="1.3 (0e150ed, 2023-07-21)"
   xmlns:inkscape="http://www.inkscape.org/namespaces/inkscape"
   xmlns:sodipodi="http://sodipodi.sourceforge.net/DTD/sodipodi-0.dtd"
   xmlns:xlink="http://www.w3.org/1999/xlink"
   xmlns="http://www.w3.org/2000/svg"
   xmlns:svg="http://www.w3.org/2000/svg"><defs
   id="defs3"><pattern
     inkscape:collect="always"
     xlink:href="#pattern6795"
     id="pattern10"
     patternTransform="matrix(3.0000001,0,0,3.0000001,185,405)"
     x="0"
     y="0"
     preserveAspectRatio="xMidYMid" /><pattern
     patternUnits="userSpaceOnUse"
     width="20"
     height="20"
     patternTransform="translate(185,405)"
     style="fill:#e98e00"
     id="pattern6795"
     inkscape:label="Astratto 2"
     inkscape:collect="always"
     inkscape:isstock="true"><path
       id="rect6713"
       style="opacity:1;stroke-width:4.8561;stroke-linecap:square;paint-order:stroke markers fill;stop-color:#000000"
       d="M 10,10 H 20 L 15,20 H 5 Z M 5,0 H 15 L 10,10 H 0 Z" /></pattern></defs><sodipodi:namedview
   id="namedview3"
   pagecolor="#ffffff"
   bordercolor="#000000"
   borderopacity="0.25"
   inkscape:showpageshadow="2"
   inkscape:pageopacity="0.0"
   inkscape:pagecheckerboard="0"
   inkscape:deskcolor="#d1d1d1"
   inkscape:zoom="0.295"
   inkscape:cx="398.30508"
   inkscape:cy="398.30508"
   inkscape:window-width="1512"
   inkscape:window-height="832"
   inkscape:window-x="0"
   inkscape:window-y="38"
   inkscape:window-maximized="0"
   inkscape:current-layer="_x32_" />&#10;<style
   type="text/css"
   id="style1">&#10;	.st0{fill:#000000;}&#10;</style>&#10;<g
   id="g3">&#10;	<path
   class="st0"
   d="M44.353,227.222c4.645,7.978,11.459,14.473,19.655,18.723l66.486,34.486   c8.118,4.203,17.254,6.044,26.375,5.298l45.386-3.698c16.695-1.368,31.526-11.227,39.249-26.112l16.182-31.192   c7.714-14.885,7.232-32.684-1.274-47.118l-23.104-39.24c-4.653-7.878-11.42-14.295-19.531-18.49L147.29,85.386   c-8.204-4.25-17.434-6.083-26.631-5.283l-69.982,6.076c-16.61,1.445-31.324,11.28-38.992,26.08l-3.814,7.35   c-7.684,14.8-7.24,32.497,1.134,46.901L44.353,227.222z"
   id="path1"
   style="fill:url(#pattern10);fill-opacity:1;stroke:#000000;stroke-opacity:1;stroke-width:9.89568;stroke-dasharray:none;stroke-linejoin:miter" />&#10;	<path
   class="st0"
   d="M399.95,320.355c-30.858,0-55.866,25.008-55.866,55.866c0,30.85,25.008,55.858,55.866,55.858   c30.85,0,55.866-25.008,55.866-55.858C455.816,345.364,430.8,320.355,399.95,320.355z M400.788,400.391   c-12.896,0-23.345-10.458-23.345-23.338c0-12.896,10.449-23.354,23.345-23.354c12.889,0,23.338,10.457,23.338,23.354   C424.126,389.933,413.678,400.391,400.788,400.391z"
   id="path2" />&#10;	<polygon
   class="st0"
   points="45.844,262.058 0,234.649 0,293.235 45.844,293.235  "
   id="polygon2" />&#10;	<polygon
   class="st0"
   points="283.906,285.077 305.379,244.819 275.586,228.924 254.105,269.182  "
   id="polygon3" />&#10;	<path
   class="st0"
   d="M510.742,215.041l-31.362-96.062c-3.418-10.465-13.192-17.558-24.2-17.558H343.291   c-14.069,0-25.498,11.405-25.498,25.474v125.871v53.885H0.101v38.362H19.08c-6.013,8.912-9.525,19.648-9.525,31.208   c0,30.85,25.016,55.858,55.866,55.858s55.858-25.008,55.858-55.858c0-11.56-3.512-22.296-9.521-31.208h29.064   c-6.009,8.912-9.521,19.648-9.521,31.208c0,30.85,25.008,55.858,55.866,55.858c30.85,0,55.866-25.008,55.866-55.858   c0-11.56-3.512-22.296-9.525-31.208h21.947v38.557h74.115l7.458-38.557c5.321-10.713,13.3-19.88,23.089-26.639   c7.373-5.104,15.756-8.818,24.814-10.76l8.639-1.36c2.082-0.187,4.203-0.295,6.363-0.295c28.877,0,53.738,17.48,64.521,42.41   h22.086c14.054,0,25.459-11.405,25.459-25.466v-99.947C512,220.261,511.604,217.596,510.742,215.041z M66.253,400.391   c-12.896,0-23.346-10.458-23.346-23.338c0-12.896,10.449-23.354,23.346-23.354s23.338,10.457,23.338,23.354   C89.591,389.933,79.149,400.391,66.253,400.391z M188.007,400.391c-12.904,0-23.354-10.458-23.354-23.338   c0-12.896,10.449-23.354,23.354-23.354c12.888,0,23.338,10.457,23.338,23.354C211.345,389.933,200.895,400.391,188.007,400.391z    M476.054,227.02h-73.137v-88.161h47.67l25.467,77.945V227.02z"
   id="path3" />&#10;</g>&#10;</svg>
